# xmcd
# 
# Track frame offsets:
#     150
#     14160
#     30392
#     46035
#     63514
#     80940
#     98345
#     115602
#     131402
#     147537
# 
# Disc length: 2177
# 
# Revision: 2
# Processed by: cddbd v1.5.2PL0 Copyright (c) Steve Scherf et al.
# Submitted via: fre:ac v1.0.31
# 
DISCID=80087f0a
DTITLE=Willie Nelson - Super Hits Volume 2
DYEAR=0
DGENRE=Country
TTITLE0=Ain't Necessarily So
TTITLE1=Just Out Of Reach
TTITLE2=Mammas Don't Let Your Babies Grow Up To Be Cowboys
TTITLE3=Stardust
TTITLE4=Without A Song
TTITLE5=Seven Spanish Angels
TTITLE6=Harbor Lights
TTITLE7=Remember Me
TTITLE8=When I Dream
TTITLE9=Let It Be Me
EXTD=
EXTT0=
EXTT1=
EXTT2=
EXTT3=
EXTT4=
EXTT5=
EXTT6=
EXTT7=
EXTT8=
EXTT9=
PLAYORDER=
